<svg xmlns="http://www.w3.org/2000/svg" fill="none" viewBox="0 0 40 40"><rect width="40" height="40" fill="#000"/><path fill="#FF004F" d="M25.323 16.525a9.8 9.8 0 0 0 5.715 1.831V14.25c-.403 0-.806-.043-1.2-.126v3.233a9.8 9.8 0 0 1-5.716-1.832v8.383c0 4.194-3.393 7.593-7.58 7.593a7.54 7.54 0 0 1-4.22-1.284 7.55 7.55 0 0 0 5.42 2.284c4.187 0 7.58-3.4 7.58-7.593zm1.48-4.145a5.73 5.73 0 0 1-1.48-3.352V8.5h-1.138a5.75 5.75 0 0 0 2.618 3.88M14.97 26.998a3.46 3.46 0 0 1-.707-2.103 3.47 3.47 0 0 1 4.52-3.31v-4.2a7.6 7.6 0 0 0-1.2-.069v3.269a3.47 3.47 0 0 0-4.52 3.31c0 1.357.775 2.53 1.907 3.103"/><path fill="#fff" d="M24.123 15.524a9.8 9.8 0 0 0 5.715 1.832v-3.233a5.74 5.74 0 0 1-3.035-1.743 5.75 5.75 0 0 1-2.617-3.88h-2.988v16.407a3.47 3.47 0 0 1-3.468 3.461 3.46 3.46 0 0 1-2.76-1.37 3.47 3.47 0 0 1-1.908-3.103 3.47 3.47 0 0 1 4.52-3.31v-3.269c-4.113.085-7.42 3.451-7.42 7.591 0 2.067.823 3.94 2.16 5.309a7.54 7.54 0 0 0 4.22 1.284c4.187 0 7.58-3.4 7.58-7.593z"/><path fill="#00F2EA" d="M29.838 14.123v-.875a5.7 5.7 0 0 1-3.034-.868 5.73 5.73 0 0 0 3.034 1.743M24.186 8.5a6 6 0 0 1-.063-.472V7.5h-4.125v16.407a3.47 3.47 0 0 1-5.028 3.09 3.46 3.46 0 0 0 2.76 1.371 3.47 3.47 0 0 0 3.468-3.461V8.5zm-6.603 8.816v-.93a8 8 0 0 0-1.04-.071c-4.187 0-7.581 3.399-7.581 7.592a7.59 7.59 0 0 0 3.36 6.309 7.57 7.57 0 0 1-2.16-5.31c0-4.139 3.307-7.505 7.42-7.59"/></svg>